<svg width="137" height="46" fill="none" xmlns="http://www.w3.org/2000/svg"><path d="M135.5 23c0 2.524-1.522 5.163-4.816 7.778-3.278 2.602-8.115 5.012-14.225 7.064C104.255 41.939 87.299 44.5 68.5 44.5c-18.798 0-35.755-2.56-47.96-6.658-6.11-2.052-10.946-4.462-14.224-7.064C3.022 28.163 1.5 25.524 1.5 23s1.522-5.163 4.816-7.778C9.594 12.62 14.43 10.21 20.54 8.16 32.745 4.06 49.7 1.5 68.5 1.5c18.799 0 35.755 2.56 47.959 6.659 6.11 2.051 10.947 4.46 14.225 7.063 3.294 2.615 4.816 5.254 4.816 7.778z" stroke="#AAEC1E" stroke-width="3"/></svg>