<svg width="39" height="38" viewBox="0 0 39 38" fill="none" xmlns="http://www.w3.org/2000/svg">
<path d="M19.5 3.97252C24.4699 3.97252 25.1476 3.97252 27.1807 3.97252C28.988 3.97252 29.8916 4.42093 30.5693 4.64514C31.4729 5.09356 32.1506 5.31777 32.8283 5.9904C33.506 6.66303 33.9578 7.33566 34.1837 8.23249C34.4096 8.90512 34.6355 9.80196 34.8614 11.5956C34.8614 13.6135 34.8614 14.0619 34.8614 19.2188C34.8614 24.3756 34.8614 24.824 34.8614 26.8419C34.8614 28.6355 34.4096 29.5324 34.1837 30.205C33.7319 31.1018 33.506 31.7745 32.8283 32.4471C32.1506 33.1197 31.4729 33.5681 30.5693 33.7924C29.8916 34.0166 28.988 34.2408 27.1807 34.465C25.1476 34.465 24.6958 34.465 19.5 34.465C14.3042 34.465 13.8524 34.465 11.8193 34.465C10.012 34.465 9.10844 34.0166 8.43072 33.7924C7.52711 33.3439 6.8494 33.1197 6.17169 32.4471C5.49398 31.7745 5.04217 31.1018 4.81627 30.205C4.59036 29.5324 4.36446 28.6355 4.13855 26.8419C4.13855 24.824 4.13855 24.3756 4.13855 19.2188C4.13855 14.0619 4.13855 13.6135 4.13855 11.5956C4.13855 9.80196 4.59036 8.90512 4.81627 8.23249C5.26807 7.33566 5.49398 6.66303 6.17169 5.9904C6.8494 5.31777 7.52711 4.86935 8.43072 4.64514C9.10844 4.42093 10.012 4.19672 11.8193 3.97252C13.8524 3.97252 14.5301 3.97252 19.5 3.97252ZM19.5 0.609375C14.3042 0.609375 13.8524 0.609375 11.8193 0.609375C9.78615 0.609375 8.43072 1.05779 7.30121 1.50621C6.17169 1.95463 5.04217 2.62726 3.91265 3.74831C2.78313 4.86935 2.33133 5.76619 1.65362 7.11145C1.20181 8.23249 0.975904 9.57775 0.75 11.5956C0.75 13.6135 0.75 14.2861 0.75 19.2188C0.75 24.3756 0.75 24.824 0.75 26.8419C0.75 28.8598 1.20181 30.205 1.65362 31.3261C2.10542 32.4471 2.78313 33.5681 3.91265 34.6892C5.04217 35.8102 5.94579 36.2587 7.30121 36.9313C8.43072 37.3797 9.78615 37.6039 11.8193 37.8281C13.8524 37.8281 14.5301 37.8281 19.5 37.8281C24.4699 37.8281 25.1476 37.8281 27.1807 37.8281C29.2139 37.8281 30.5693 37.3797 31.6988 36.9313C32.8283 36.4829 33.9578 35.8102 35.0874 34.6892C36.2169 33.5681 36.6687 32.6713 37.3464 31.3261C37.7982 30.205 38.0241 28.8598 38.25 26.8419C38.25 24.824 38.25 24.1514 38.25 19.2188C38.25 14.2861 38.25 13.6135 38.25 11.5956C38.25 9.57775 37.7982 8.23249 37.3464 7.11145C36.8946 5.9904 36.2169 4.86935 35.0874 3.74831C33.9578 2.62726 33.0542 2.17884 31.6988 1.50621C30.5693 1.05779 29.2139 0.833584 27.1807 0.609375C25.1476 0.609375 24.6958 0.609375 19.5 0.609375Z" fill="white"/>
<path d="M19.5 9.57775C14.0783 9.57775 9.78615 13.8377 9.78615 19.2188C9.78615 24.5998 14.0783 28.8598 19.5 28.8598C24.9217 28.8598 29.2139 24.5998 29.2139 19.2188C29.2139 13.8377 24.9217 9.57775 19.5 9.57775ZM19.5 25.4966C16.1114 25.4966 13.1747 22.8061 13.1747 19.2188C13.1747 15.8556 15.8855 12.9409 19.5 12.9409C22.8886 12.9409 25.8253 15.6314 25.8253 19.2188C25.8253 22.5819 22.8886 25.4966 19.5 25.4966Z" fill="white"/>
<path d="M29.4398 11.5956C30.6874 11.5956 31.6988 10.5918 31.6988 9.35354C31.6988 8.11527 30.6874 7.11145 29.4398 7.11145C28.1921 7.11145 27.1807 8.11527 27.1807 9.35354C27.1807 10.5918 28.1921 11.5956 29.4398 11.5956Z" fill="white"/>
</svg>
