<svg width="41" height="26" viewBox="0 0 41 26" fill="none" xmlns="http://www.w3.org/2000/svg">
<path d="M22.2939 25.8901C8.57616 25.8901 0.751796 16.3712 0.425781 0.531738H7.29717C7.52288 12.1575 12.5886 17.0819 16.6011 18.0973V0.531738H23.0713V10.5583C27.0336 10.1268 31.1966 5.55772 32.601 0.531738H39.0711C38.5419 3.13836 37.487 5.60641 35.9724 7.78152C34.4578 9.95663 32.5161 11.792 30.2687 13.1728C32.7773 14.4346 34.9931 16.2204 36.7698 18.4126C38.5464 20.6047 39.8436 23.1533 40.5758 25.8901H33.4536C32.7964 23.513 31.4606 21.385 29.6137 19.773C27.7668 18.161 25.4909 17.1365 23.0713 16.8281V25.8901H22.2939V25.8901Z" fill="white"/>
</svg>
