<svg width="39" height="39" viewBox="0 0 39 39" fill="none" xmlns="http://www.w3.org/2000/svg">
<path d="M32.9665 5.84158C29.361 2.27556 24.5537 0.294434 19.4793 0.294434C8.92988 0.294434 0.383535 8.74722 0.383535 19.1811C0.383535 22.483 1.31829 25.7849 2.92073 28.5585L0.25 38.332L10.3988 35.6905C13.2031 37.1433 16.2744 37.9358 19.4793 37.9358C30.0287 37.9358 38.575 29.483 38.575 19.0491C38.4415 14.1623 36.5719 9.4076 32.9665 5.84158ZM28.6933 25.917C28.2927 26.9736 26.4232 28.0302 25.4884 28.1622C24.6872 28.2943 23.6189 28.2943 22.5506 28.0302C21.8829 27.766 20.9482 27.5019 19.8799 26.9736C15.0726 24.9924 12.0012 20.2377 11.7341 19.8415C11.4671 19.5774 9.7311 17.3321 9.7311 14.9547C9.7311 12.5774 10.9329 11.5208 11.3335 10.9925C11.7341 10.4642 12.2683 10.4642 12.6689 10.4642C12.936 10.4642 13.3366 10.4642 13.6037 10.4642C13.8707 10.4642 14.2713 10.3321 14.672 11.2566C15.0726 12.1812 16.0073 14.5585 16.1409 14.6906C16.2744 14.9547 16.2744 15.2189 16.1409 15.483C16.0073 15.7472 15.8738 16.0113 15.6067 16.2755C15.3396 16.5396 15.0726 16.9359 14.939 17.0679C14.6719 17.3321 14.4049 17.5962 14.672 17.9925C14.939 18.5208 15.8738 19.9736 17.3427 21.2943C19.2122 22.8792 20.6811 23.4075 21.2152 23.6717C21.7494 23.9358 22.0165 23.8038 22.2835 23.5396C22.5506 23.2755 23.4854 22.2189 23.7524 21.6906C24.0195 21.1623 24.4201 21.2943 24.8207 21.4264C25.2213 21.5585 27.625 22.7472 28.0256 23.0113C28.5598 23.2755 28.8268 23.4075 28.9604 23.5396C29.0939 23.9358 29.0939 24.8604 28.6933 25.917Z" fill="white"/>
</svg>
