<?xml version="1.0" standalone="no"?>
<!DOCTYPE svg PUBLIC "-//W3C//DTD SVG 20010904//EN"
 "http://www.w3.org/TR/2001/REC-SVG-20010904/DTD/svg10.dtd">
<svg version="1.0" xmlns="http://www.w3.org/2000/svg"
 width="16.000000pt" height="16.000000pt" viewBox="0 0 16.000000 16.000000"
 preserveAspectRatio="xMidYMid meet">

<g transform="translate(0.000000,16.000000) scale(0.100000,-0.100000)"
fill="#000000" stroke="none">
<path d="M36 136 c-10 -8 -15 -20 -11 -26 5 -8 12 -7 25 5 12 11 26 14 45 9
21 -5 27 -4 23 7 -6 19 -59 22 -82 5z"/>
<path d="M80 80 c0 -5 9 -10 20 -10 14 0 20 -7 20 -22 1 -22 1 -23 15 -4 24
32 18 46 -20 46 -19 0 -35 -4 -35 -10z"/>
</g>
</svg>
